<?xml version="1.0" standalone="no"?>
<!DOCTYPE svg PUBLIC "-//W3C//DTD SVG 20010904//EN"
 "http://www.w3.org/TR/2001/REC-SVG-20010904/DTD/svg10.dtd">
<svg version="1.0" xmlns="http://www.w3.org/2000/svg"
 width="950.000000pt" height="1280.000000pt" viewBox="0 0 950.000000 1280.000000"
 preserveAspectRatio="xMidYMid meet">
<metadata>
Created by potrace 1.15, written by Peter Selinger 2001-2017
</metadata>
<g transform="translate(0.000000,1280.000000) scale(0.100000,-0.100000)"
fill="#000000" stroke="none">
<path d="M7537 12774 c-118 -19 -162 -31 -215 -58 -85 -43 -171 -107 -264
-195 -75 -70 -142 -111 -232 -139 -42 -13 -90 -16 -266 -14 -173 2 -241 -1
-350 -17 -215 -32 -444 -50 -750 -61 -347 -12 -447 -25 -620 -82 -152 -49
-402 -187 -413 -227 -7 -27 -101 -48 -148 -33 -19 6 -74 18 -124 27 -49 9
-193 41 -320 71 -482 116 -572 130 -706 113 -123 -15 -162 -40 -332 -211 -225
-227 -369 -357 -487 -438 -161 -112 -497 -368 -564 -430 -121 -111 -235 -297
-272 -440 -22 -87 -14 -155 31 -263 60 -146 119 -366 165 -617 28 -152 51
-221 122 -364 85 -170 119 -196 178 -138 l28 28 3 356 c2 196 7 360 11 363 10
11 168 -84 168 -101 0 -21 68 -92 125 -130 46 -31 103 -53 260 -99 61 -18 60
-17 190 -155 24 -25 36 -51 45 -93 6 -32 10 -60 8 -61 -42 -30 -109 -59 -134
-58 -22 2 -49 -11 -105 -50 -186 -130 -256 -200 -380 -378 -123 -179 -157
-258 -200 -467 -21 -106 -23 -110 -93 -205 -50 -69 -77 -97 -93 -97 -11 -1
-32 -14 -46 -31 -34 -40 -120 -261 -156 -401 -30 -119 -38 -172 -96 -682 -19
-170 -37 -312 -40 -317 -3 -4 -22 -11 -42 -15 -53 -9 -115 -47 -147 -90 -15
-19 -50 -61 -77 -92 -161 -183 -363 -587 -423 -845 -71 -305 -112 -843 -87
-1138 23 -274 55 -429 164 -782 83 -269 124 -334 197 -315 21 5 109 -35 126
-58 8 -11 8 -31 -3 -75 -7 -33 -34 -196 -58 -362 -123 -820 -165 -980 -311
-1178 -92 -125 -188 -205 -354 -295 -201 -109 -239 -151 -328 -360 -98 -230
-127 -393 -117 -655 6 -158 9 -180 31 -227 38 -80 136 -146 264 -179 86 -22
192 -15 375 25 253 55 394 74 680 91 94 6 211 19 261 29 182 38 375 134 483
241 91 90 91 90 393 790 278 645 325 783 366 1085 23 168 22 159 57 565 29
339 32 360 48 360 6 0 47 -16 92 -35 44 -19 154 -55 245 -80 220 -61 334 -73
558 -57 205 14 295 29 531 88 223 56 232 56 463 -21 277 -92 381 -106 679 -94
220 9 322 30 403 80 59 37 81 32 71 -14 -32 -151 -36 -199 -42 -492 -9 -502
21 -667 201 -1097 82 -197 117 -267 171 -343 51 -72 174 -191 250 -241 33 -22
65 -54 80 -80 74 -127 209 -260 365 -359 41 -27 96 -68 122 -92 35 -32 55 -43
79 -43 18 0 180 -25 361 -55 180 -31 350 -56 376 -56 54 -2 83 10 127 52 17
16 60 40 95 55 112 45 164 74 208 117 86 83 119 189 107 346 -23 316 -161 539
-454 736 -180 120 -253 202 -331 368 -64 137 -79 218 -90 495 -13 302 -7 357
86 882 98 555 128 648 299 919 120 192 153 302 175 596 19 260 54 420 150 695
54 156 60 180 54 226 -5 44 -2 59 26 113 107 214 145 336 156 510 5 82 3 120
-10 169 -22 88 -21 100 20 168 53 86 84 155 84 187 0 15 -11 49 -24 75 l-23
47 1 535 c2 644 -9 577 153 950 78 178 97 265 97 445 0 206 -32 431 -94 673
-34 132 -57 187 -108 261 l-37 53 -3 185 c-4 204 -1 215 51 206 41 -6 58 12
91 100 34 91 73 145 159 219 92 79 138 135 183 223 54 104 49 101 112 45 99
-89 187 -109 240 -57 23 23 27 37 30 100 3 61 -7 118 -63 369 -62 276 -66 306
-68 430 -2 149 -14 185 -84 268 -87 101 -376 282 -983 615 -69 38 -142 79
-163 92 -76 48 -333 124 -411 122 -22 -1 -108 -12 -189 -25z m1010 -5916 c-2
-13 -4 -3 -4 22 0 25 2 35 4 23 2 -13 2 -33 0 -45z m-519 -5448 c34 -27 162
-168 131 -145 -114 87 -229 176 -229 180 0 9 77 -19 98 -35z"/>
</g>
</svg>
